<svg xmlns="http://www.w3.org/2000/svg" width="19.063" height="20.513" viewBox="0 0 19.063 20.513"><defs><style>.a{fill:#fff;}</style></defs><g transform="translate(-5689.371 -231.278)"><path class="a" d="M5694.8,244.784h11.3a2.332,2.332,0,0,0,2.327-2.327v-4.806a.056.056,0,0,0,0-.025c0-.008,0-.021,0-.029s0-.017,0-.026a.286.286,0,0,1-.008-.029.184.184,0,0,0-.009-.026c0-.008,0-.016-.008-.025l-.013-.029a.078.078,0,0,0-.012-.021l-.013-.026-.013-.021c0-.008-.012-.017-.016-.025a.084.084,0,0,0-.017-.021c0-.009-.013-.013-.017-.021s-.013-.013-.017-.021-.013-.013-.017-.017l-.021-.021c-.008-.005-.013-.013-.021-.017s-.017-.013-.025-.017l-.021-.013a.077.077,0,0,1-.026-.017l-.025-.012-.025-.013-.026-.012a.162.162,0,0,0-.025-.009.078.078,0,0,0-.029-.008.121.121,0,0,1-.021,0,.1.1,0,0,0-.034,0s-.009,0-.017,0l-14.325-1.977v-2a.225.225,0,0,0,0-.059.028.028,0,0,0,0-.016c0-.013,0-.026,0-.038s0-.021-.009-.034,0-.013,0-.021l-.012-.038,0-.017a.134.134,0,0,0-.016-.034s0-.012-.009-.017a.085.085,0,0,0-.017-.025l-.012-.021-.013-.021c0-.008-.013-.017-.017-.025l-.013-.013-.025-.025-.012-.013a.2.2,0,0,0-.03-.025l-.017-.013c-.008-.008-.017-.012-.025-.021a.39.39,0,0,0-.034-.021l-.013-.008c-.016-.009-.037-.017-.054-.026l-3.107-1.307a.57.57,0,1,0-.443,1.05l2.757,1.164v12.47a2.328,2.328,0,0,0,2.028,2.306,2.3,2.3,0,1,0,4.266,1.181,2.257,2.257,0,0,0-.316-1.16h5.118a2.27,2.27,0,0,0-.316,1.16,2.3,2.3,0,1,0,2.3-2.3H5694.8a1.19,1.19,0,0,1-1.189-1.189v-1.543A2.358,2.358,0,0,0,5694.8,244.784Zm2.833,4.705a1.159,1.159,0,1,1-1.159-1.159A1.162,1.162,0,0,1,5697.637,249.489Zm9.081,0a1.159,1.159,0,1,1-1.159-1.159A1.162,1.162,0,0,1,5706.718,249.489Zm-.611-5.843h-11.3a1.19,1.19,0,0,1-1.189-1.189v-6.151l13.681,1.885v4.262A1.191,1.191,0,0,1,5706.107,243.646Z"/></g></svg>