<svg xmlns="http://www.w3.org/2000/svg" width="29.903" height="24" viewBox="0 0 29.903 24"><path d="M5660.708,306.339a1.181,1.181,0,0,0-.957-.491h-5.335l-7.514-9.393-.006-.006c-.015-.018-.031-.036-.048-.054s-.022-.025-.034-.037l-.037-.034c-.018-.017-.035-.033-.054-.048l-.006-.005-.025-.018a.716.716,0,0,0-.065-.047l-.038-.023c-.02-.012-.04-.025-.061-.036l-.049-.023c-.018-.008-.036-.017-.054-.024l-.059-.022-.047-.016-.065-.016-.046-.011-.064-.01-.049-.007c-.02,0-.04,0-.061,0l-.054,0-.055,0c-.02,0-.04,0-.06,0l-.049.007-.065.01-.045.011-.065.016-.047.016-.06.022c-.018.007-.035.016-.053.024l-.049.023c-.021.011-.041.024-.062.036l-.037.023c-.023.015-.044.031-.066.047l-.024.018-.006.005c-.019.015-.037.032-.055.048s-.025.022-.036.034-.023.025-.035.038-.033.035-.048.053l0,.006-7.514,9.393h-5.335a1.181,1.181,0,0,0-1.12,1.554l3.935,11.8a1.18,1.18,0,0,0,1.12.807h19.672a1.181,1.181,0,0,0,1.12-.807l3.935-11.8A1.181,1.181,0,0,0,5660.708,306.339Zm-14.728-7.257,5.413,6.766h-10.826Zm8.985,18.57h-17.971l-3.147-9.443h24.266Z" transform="translate(-5631.028 -296.013)"/></svg>