<svg xmlns="http://www.w3.org/2000/svg" width="16.13" height="20.109" viewBox="0 0 16.13 20.109"><defs><style>.a{fill:#fff;}</style></defs><g transform="translate(-5834.325 -231.48)"><path class="a" d="M5842.386,231.48a8.071,8.071,0,0,0-8.061,8.061,7.909,7.909,0,0,0,.144,1.513c0,.03.021.118.054.27a8,8,0,0,0,.54,1.589,22.593,22.593,0,0,0,6.969,8.55.571.571,0,0,0,.716,0,22.62,22.62,0,0,0,6.969-8.55,7.82,7.82,0,0,0,.54-1.589c.034-.152.05-.24.055-.27a8.364,8.364,0,0,0,.143-1.513A8.084,8.084,0,0,0,5842.386,231.48Zm6.8,9.376c0,.008,0,.017,0,.025s-.017.085-.038.182v.008a6.746,6.746,0,0,1-.468,1.374s0,.013-.009.017a6.43,6.43,0,1,1-12.554,0s0-.012-.009-.017a7.2,7.2,0,0,1-.468-1.374v-.008c-.025-.1-.034-.161-.038-.182s0-.017,0-.029a6.922,6.922,0,1,1,13.592,0Z"/><path class="a" d="M5842.386,234.511a5.118,5.118,0,1,0,5.118,5.118A5.126,5.126,0,0,0,5842.386,234.511Zm0,9.1a3.98,3.98,0,1,1,3.98-3.98A3.985,3.985,0,0,1,5842.386,243.609Z"/></g></svg>