<svg xmlns="http://www.w3.org/2000/svg" width="19.946" height="19.975" viewBox="0 0 19.946 19.975"><defs><style>.a{fill:#fff;}</style></defs><g transform="translate(-5549.174 -231.547)"><path class="a" d="M5564.946,243.921a1.962,1.962,0,0,0-1.425-.653,2.03,2.03,0,0,0-1.442.649l-1.332,1.328c-.11-.059-.219-.114-.325-.169-.151-.076-.295-.147-.417-.223a14.5,14.5,0,0,1-3.47-3.162,8.514,8.514,0,0,1-1.138-1.8c.346-.316.666-.645.978-.961.118-.118.236-.241.354-.359a1.933,1.933,0,0,0,0-2.917l-1.151-1.151c-.13-.131-.265-.265-.392-.4-.253-.262-.518-.532-.792-.785a2,2,0,0,0-1.413-.619,2.068,2.068,0,0,0-1.433.619l-.008.009-1.434,1.446a3.09,3.09,0,0,0-.915,1.96,7.4,7.4,0,0,0,.54,3.128,18.152,18.152,0,0,0,3.225,5.38,19.845,19.845,0,0,0,6.606,5.173,10.314,10.314,0,0,0,3.71,1.1c.089,0,.182.008.266.008a3.176,3.176,0,0,0,2.432-1.045c0-.009.013-.013.017-.021a9.761,9.761,0,0,1,.738-.764c.181-.172.367-.354.548-.543a2.107,2.107,0,0,0,.637-1.459,2.026,2.026,0,0,0-.65-1.446Zm1.509,4.439s0,.005,0,0c-.164.177-.333.338-.514.515a11.149,11.149,0,0,0-.814.843,2.032,2.032,0,0,1-1.585.67c-.063,0-.131,0-.194,0a9.131,9.131,0,0,1-3.288-.987,18.731,18.731,0,0,1-6.223-4.873,17.145,17.145,0,0,1-3.035-5.055,6.028,6.028,0,0,1-.472-2.639,1.934,1.934,0,0,1,.582-1.252l1.437-1.438a.958.958,0,0,1,.641-.3.9.9,0,0,1,.615.295l.013.013c.257.24.5.489.759.754.131.135.266.27.4.409l1.151,1.151a.8.8,0,0,1,0,1.307c-.122.122-.24.245-.362.363-.354.362-.692.7-1.058,1.028-.009.009-.017.013-.021.021a.859.859,0,0,0-.22.957l.013.038a9.225,9.225,0,0,0,1.362,2.222l0,0a15.447,15.447,0,0,0,3.744,3.407,5.578,5.578,0,0,0,.518.282c.152.076.295.148.417.224.017.008.034.021.051.029a.859.859,0,0,0,1.058-.185l1.442-1.442a.951.951,0,0,1,.637-.316.861.861,0,0,1,.607.307l.008.009,2.323,2.323A.834.834,0,0,1,5566.455,248.36Z"/><path class="a" d="M5559.954,236.3a5.428,5.428,0,0,1,4.419,4.418.565.565,0,0,0,.56.472.773.773,0,0,0,.1-.008.57.57,0,0,0,.468-.658,6.562,6.562,0,0,0-5.345-5.346.573.573,0,0,0-.658.464A.563.563,0,0,0,5559.954,236.3Z"/><path class="a" d="M5569.111,240.359a10.8,10.8,0,0,0-8.8-8.8.568.568,0,1,0-.186,1.121,9.652,9.652,0,0,1,7.867,7.867.565.565,0,0,0,.561.472.78.78,0,0,0,.1-.008A.558.558,0,0,0,5569.111,240.359Z"/></g></svg>