<svg xmlns="http://www.w3.org/2000/svg" width="25.765" height="24" viewBox="0 0 25.765 24"><path d="M5759.933,298.3h0a7.16,7.16,0,0,0-10.491,0l-.268.284-.268-.282a7.161,7.161,0,0,0-10.123-.372q-.193.178-.372.372a8.04,8.04,0,0,0,0,10.886l9.926,10.468a1.142,1.142,0,0,0,.8.358h.031a1.135,1.135,0,0,0,.787-.313l9.972-10.516A8.038,8.038,0,0,0,5759.933,298.3Zm-1.489,9.471-.178-.168-9.092,9.59-9.092-9.588a5.711,5.711,0,0,1,0-7.729,4.833,4.833,0,0,1,3.38-1.562c.067,0,.134,0,.2,0a4.828,4.828,0,0,1,3.295,1.29c.1.088.188.181.279.278l1.108,1.168a1.179,1.179,0,0,0,1.663-.005l1.1-1.164a4.864,4.864,0,0,1,6.876-.276c.1.088.189.18.278.277a5.65,5.65,0,0,1,0,7.725Z" transform="translate(-5736.29 -296.013)"/></svg>